<?xml version="1.0" encoding="UTF-8"?>
<svg width="512" height="512" viewBox="0 0 512 512" fill="none" xmlns="http://www.w3.org/2000/svg">
    <!-- Main Circle -->
    <circle cx="256" cy="256" r="240" fill="#FFFFFF"/>

    <!-- Cross -->
    <path d="M256 96C242.745 96 232 106.745 232 120V232H120C106.745 232 96 242.745 96 256C96 269.255 106.745 280 120 280H232V392C232 405.255 242.745 416 256 416C269.255 416 280 405.255 280 392V280H392C405.255 280 416 269.255 416 256C416 242.745 405.255 232 392 232H280V120C280 106.745 269.255 96 256 96Z" fill="#2f3687"/>
</svg>
